<svg id="visual" viewBox="0 0 1300 1000" width="1300" height="1000" xmlns="http://www.w3.org/2000/svg" xmlns:xlink="http://www.w3.org/1999/xlink" version="1.1"><rect x="0" y="0" width="1300" height="1000" fill="#001220"></rect><path d="M0 382L16.7 378C33.3 374 66.7 366 100 391C133.3 416 166.7 474 200 476.2C233.3 478.3 266.7 424.7 300 429.7C333.3 434.7 366.7 498.3 400 503.5C433.3 508.7 466.7 455.3 500 449.8C533.3 444.3 566.7 486.7 600 497.7C633.3 508.7 666.7 488.3 700 462.5C733.3 436.7 766.7 405.3 800 419.7C833.3 434 866.7 494 900 514.5C933.3 535 966.7 516 1000 504.7C1033.3 493.3 1066.7 489.7 1100 488.7C1133.3 487.7 1166.7 489.3 1200 482C1233.3 474.7 1266.7 458.3 1283.3 450.2L1300 442L1300 1001L1283.3 1001C1266.7 1001 1233.3 1001 1200 1001C1166.7 1001 1133.3 1001 1100 1001C1066.7 1001 1033.3 1001 1000 1001C966.7 1001 933.3 1001 900 1001C866.7 1001 833.3 1001 800 1001C766.7 1001 733.3 1001 700 1001C666.7 1001 633.3 1001 600 1001C566.7 1001 533.3 1001 500 1001C466.7 1001 433.3 1001 400 1001C366.7 1001 333.3 1001 300 1001C266.7 1001 233.3 1001 200 1001C166.7 1001 133.3 1001 100 1001C66.7 1001 33.3 1001 16.7 1001L0 1001Z" fill="#ffffff"></path><path d="M0 595L16.7 585.5C33.3 576 66.7 557 100 548.5C133.3 540 166.7 542 200 534.3C233.3 526.7 266.7 509.3 300 508C333.3 506.7 366.7 521.3 400 555C433.3 588.7 466.7 641.3 500 641.5C533.3 641.7 566.7 589.3 600 557.7C633.3 526 666.7 515 700 511.2C733.3 507.3 766.7 510.7 800 540.8C833.3 571 866.7 628 900 645.8C933.3 663.7 966.7 642.3 1000 617.3C1033.3 592.3 1066.7 563.7 1100 551.8C1133.3 540 1166.7 545 1200 535.8C1233.3 526.7 1266.7 503.3 1283.3 491.7L1300 480L1300 1001L1283.3 1001C1266.7 1001 1233.3 1001 1200 1001C1166.7 1001 1133.3 1001 1100 1001C1066.7 1001 1033.3 1001 1000 1001C966.7 1001 933.3 1001 900 1001C866.7 1001 833.3 1001 800 1001C766.7 1001 733.3 1001 700 1001C666.7 1001 633.3 1001 600 1001C566.7 1001 533.3 1001 500 1001C466.7 1001 433.3 1001 400 1001C366.7 1001 333.3 1001 300 1001C266.7 1001 233.3 1001 200 1001C166.7 1001 133.3 1001 100 1001C66.7 1001 33.3 1001 16.7 1001L0 1001Z" fill="#a2a6ae"></path><path d="M0 728L16.7 736.2C33.3 744.3 66.7 760.7 100 756.8C133.3 753 166.7 729 200 733C233.3 737 266.7 769 300 785.5C333.3 802 366.7 803 400 800.5C433.3 798 466.7 792 500 766.8C533.3 741.7 566.7 697.3 600 670.7C633.3 644 666.7 635 700 632.7C733.3 630.3 766.7 634.7 800 661.3C833.3 688 866.7 737 900 734.7C933.3 732.3 966.7 678.7 1000 660.7C1033.3 642.7 1066.7 660.3 1100 676.5C1133.3 692.7 1166.7 707.3 1200 710.2C1233.3 713 1266.7 704 1283.3 699.5L1300 695L1300 1001L1283.3 1001C1266.7 1001 1233.3 1001 1200 1001C1166.7 1001 1133.3 1001 1100 1001C1066.7 1001 1033.3 1001 1000 1001C966.7 1001 933.3 1001 900 1001C866.7 1001 833.3 1001 800 1001C766.7 1001 733.3 1001 700 1001C666.7 1001 633.3 1001 600 1001C566.7 1001 533.3 1001 500 1001C466.7 1001 433.3 1001 400 1001C366.7 1001 333.3 1001 300 1001C266.7 1001 233.3 1001 200 1001C166.7 1001 133.3 1001 100 1001C66.7 1001 33.3 1001 16.7 1001L0 1001Z" fill="#4e5664"></path><path d="M0 814L16.7 830.3C33.3 846.7 66.7 879.3 100 886.8C133.3 894.3 166.7 876.7 200 854.7C233.3 832.7 266.7 806.3 300 797.7C333.3 789 366.7 798 400 806.2C433.3 814.3 466.7 821.7 500 823.3C533.3 825 566.7 821 600 835.5C633.3 850 666.7 883 700 888.3C733.3 893.7 766.7 871.3 800 858.7C833.3 846 866.7 843 900 846C933.3 849 966.7 858 1000 867.7C1033.3 877.3 1066.7 887.7 1100 873.5C1133.3 859.3 1166.7 820.7 1200 800.7C1233.3 780.7 1266.7 779.3 1283.3 778.7L1300 778L1300 1001L1283.3 1001C1266.7 1001 1233.3 1001 1200 1001C1166.7 1001 1133.3 1001 1100 1001C1066.7 1001 1033.3 1001 1000 1001C966.7 1001 933.3 1001 900 1001C866.7 1001 833.3 1001 800 1001C766.7 1001 733.3 1001 700 1001C666.7 1001 633.3 1001 600 1001C566.7 1001 533.3 1001 500 1001C466.7 1001 433.3 1001 400 1001C366.7 1001 333.3 1001 300 1001C266.7 1001 233.3 1001 200 1001C166.7 1001 133.3 1001 100 1001C66.7 1001 33.3 1001 16.7 1001L0 1001Z" fill="#001122"></path></svg>