<svg id="visual" viewBox="0 0 1300 600" width="1300" height="600" xmlns="http://www.w3.org/2000/svg" xmlns:xlink="http://www.w3.org/1999/xlink" version="1.1"><rect x="0" y="0" width="1300" height="600" fill="#001220"></rect><path d="M0 229L16.7 226.7C33.3 224.3 66.7 219.7 100 234.7C133.3 249.7 166.7 284.3 200 285.5C233.3 286.7 266.7 254.3 300 257.3C333.3 260.3 366.7 298.7 400 301.8C433.3 305 466.7 273 500 269.7C533.3 266.3 566.7 291.7 600 298.2C633.3 304.7 666.7 292.3 700 276.8C733.3 261.3 766.7 242.7 800 251.3C833.3 260 866.7 296 900 308.3C933.3 320.7 966.7 309.3 1000 302.5C1033.3 295.7 1066.7 293.3 1100 292.7C1133.3 292 1166.7 293 1200 288.7C1233.3 284.3 1266.7 274.7 1283.3 269.8L1300 265L1300 601L1283.3 601C1266.7 601 1233.3 601 1200 601C1166.7 601 1133.3 601 1100 601C1066.7 601 1033.3 601 1000 601C966.7 601 933.3 601 900 601C866.7 601 833.3 601 800 601C766.7 601 733.3 601 700 601C666.7 601 633.3 601 600 601C566.7 601 533.3 601 500 601C466.7 601 433.3 601 400 601C366.7 601 333.3 601 300 601C266.7 601 233.3 601 200 601C166.7 601 133.3 601 100 601C66.7 601 33.3 601 16.7 601L0 601Z" fill="#ffffff"></path><path d="M0 357L16.7 351.2C33.3 345.3 66.7 333.7 100 328.5C133.3 323.3 166.7 324.7 200 320.2C233.3 315.7 266.7 305.3 300 304.5C333.3 303.7 366.7 312.3 400 332.5C433.3 352.7 466.7 384.3 500 384.5C533.3 384.7 566.7 353.3 600 334.3C633.3 315.3 666.7 308.7 700 306.3C733.3 304 766.7 306 800 324.2C833.3 342.3 866.7 376.7 900 387.3C933.3 398 966.7 385 1000 369.8C1033.3 354.7 1066.7 337.3 1100 330.3C1133.3 323.3 1166.7 326.7 1200 321.3C1233.3 316 1266.7 302 1283.3 295L1300 288L1300 601L1283.3 601C1266.7 601 1233.3 601 1200 601C1166.7 601 1133.3 601 1100 601C1066.7 601 1033.3 601 1000 601C966.7 601 933.3 601 900 601C866.7 601 833.3 601 800 601C766.7 601 733.3 601 700 601C666.7 601 633.3 601 600 601C566.7 601 533.3 601 500 601C466.7 601 433.3 601 400 601C366.7 601 333.3 601 300 601C266.7 601 233.3 601 200 601C166.7 601 133.3 601 100 601C66.7 601 33.3 601 16.7 601L0 601Z" fill="#a2a6ae"></path><path d="M0 437L16.7 441.8C33.3 446.7 66.7 456.3 100 454C133.3 451.7 166.7 437.3 200 439.7C233.3 442 266.7 461 300 470.8C333.3 480.7 366.7 481.3 400 479.8C433.3 478.3 466.7 474.7 500 459.5C533.3 444.3 566.7 417.7 600 401.7C633.3 385.7 666.7 380.3 700 379C733.3 377.7 766.7 380.3 800 396.3C833.3 412.3 866.7 441.7 900 440.3C933.3 439 966.7 407 1000 396.2C1033.3 385.3 1066.7 395.7 1100 405.3C1133.3 415 1166.7 424 1200 425.8C1233.3 427.7 1266.7 422.3 1283.3 419.7L1300 417L1300 601L1283.3 601C1266.7 601 1233.3 601 1200 601C1166.7 601 1133.3 601 1100 601C1066.7 601 1033.3 601 1000 601C966.7 601 933.3 601 900 601C866.7 601 833.3 601 800 601C766.7 601 733.3 601 700 601C666.7 601 633.3 601 600 601C566.7 601 533.3 601 500 601C466.7 601 433.3 601 400 601C366.7 601 333.3 601 300 601C266.7 601 233.3 601 200 601C166.7 601 133.3 601 100 601C66.7 601 33.3 601 16.7 601L0 601Z" fill="#4e5664"></path><path d="M0 488L16.7 497.8C33.3 507.7 66.7 527.3 100 531.8C133.3 536.3 166.7 525.7 200 512.5C233.3 499.3 266.7 483.7 300 478.5C333.3 473.3 366.7 478.7 400 483.5C433.3 488.3 466.7 492.7 500 493.7C533.3 494.7 566.7 492.3 600 501C633.3 509.7 666.7 529.3 700 532.5C733.3 535.7 766.7 522.3 800 514.7C833.3 507 866.7 505 900 506.8C933.3 508.7 966.7 514.3 1000 520.3C1033.3 526.3 1066.7 532.7 1100 524.2C1133.3 515.7 1166.7 492.3 1200 480.3C1233.3 468.3 1266.7 467.7 1283.3 467.3L1300 467L1300 601L1283.3 601C1266.7 601 1233.3 601 1200 601C1166.7 601 1133.3 601 1100 601C1066.7 601 1033.3 601 1000 601C966.7 601 933.3 601 900 601C866.7 601 833.3 601 800 601C766.7 601 733.3 601 700 601C666.7 601 633.3 601 600 601C566.7 601 533.3 601 500 601C466.7 601 433.3 601 400 601C366.7 601 333.3 601 300 601C266.7 601 233.3 601 200 601C166.7 601 133.3 601 100 601C66.7 601 33.3 601 16.7 601L0 601Z" fill="#001122"></path></svg>