<svg id="visual" viewBox="0 0 900 600" width="900" height="600" xmlns="http://www.w3.org/2000/svg" xmlns:xlink="http://www.w3.org/1999/xlink" version="1.1"><rect x="0" y="0" width="900" height="600" fill="#001220"></rect><path d="M0 258L16.7 266.8C33.3 275.7 66.7 293.3 100 307.5C133.3 321.7 166.7 332.3 200 335C233.3 337.7 266.7 332.3 300 332.2C333.3 332 366.7 337 400 345.5C433.3 354 466.7 366 500 356.7C533.3 347.3 566.7 316.7 600 309.5C633.3 302.3 666.7 318.7 700 316.2C733.3 313.7 766.7 292.3 800 291.7C833.3 291 866.7 311 883.3 321L900 331L900 601L883.3 601C866.7 601 833.3 601 800 601C766.7 601 733.3 601 700 601C666.7 601 633.3 601 600 601C566.7 601 533.3 601 500 601C466.7 601 433.3 601 400 601C366.7 601 333.3 601 300 601C266.7 601 233.3 601 200 601C166.7 601 133.3 601 100 601C66.7 601 33.3 601 16.7 601L0 601Z" fill="#ffffff"></path><path d="M0 349L16.7 358.2C33.3 367.3 66.7 385.7 100 391.3C133.3 397 166.7 390 200 384.8C233.3 379.7 266.7 376.3 300 365.8C333.3 355.3 366.7 337.7 400 331.2C433.3 324.7 466.7 329.3 500 331.5C533.3 333.7 566.7 333.3 600 335.2C633.3 337 666.7 341 700 354.5C733.3 368 766.7 391 800 389C833.3 387 866.7 360 883.3 346.5L900 333L900 601L883.3 601C866.7 601 833.3 601 800 601C766.7 601 733.3 601 700 601C666.7 601 633.3 601 600 601C566.7 601 533.3 601 500 601C466.7 601 433.3 601 400 601C366.7 601 333.3 601 300 601C266.7 601 233.3 601 200 601C166.7 601 133.3 601 100 601C66.7 601 33.3 601 16.7 601L0 601Z" fill="#c7c9ce"></path><path d="M0 364L16.7 371C33.3 378 66.7 392 100 401.7C133.3 411.3 166.7 416.7 200 418.8C233.3 421 266.7 420 300 410.2C333.3 400.3 366.7 381.7 400 380.2C433.3 378.7 466.7 394.3 500 407C533.3 419.7 566.7 429.3 600 425.2C633.3 421 666.7 403 700 396C733.3 389 766.7 393 800 404.7C833.3 416.3 866.7 435.7 883.3 445.3L900 455L900 601L883.3 601C866.7 601 833.3 601 800 601C766.7 601 733.3 601 700 601C666.7 601 633.3 601 600 601C566.7 601 533.3 601 500 601C466.7 601 433.3 601 400 601C366.7 601 333.3 601 300 601C266.7 601 233.3 601 200 601C166.7 601 133.3 601 100 601C66.7 601 33.3 601 16.7 601L0 601Z" fill="#91969f"></path><path d="M0 410L16.7 411.3C33.3 412.7 66.7 415.3 100 428.5C133.3 441.7 166.7 465.3 200 468.8C233.3 472.3 266.7 455.7 300 455.2C333.3 454.7 366.7 470.3 400 476.5C433.3 482.7 466.7 479.3 500 478.3C533.3 477.3 566.7 478.7 600 471.8C633.3 465 666.7 450 700 440.2C733.3 430.3 766.7 425.7 800 423.8C833.3 422 866.7 423 883.3 423.5L900 424L900 601L883.3 601C866.7 601 833.3 601 800 601C766.7 601 733.3 601 700 601C666.7 601 633.3 601 600 601C566.7 601 533.3 601 500 601C466.7 601 433.3 601 400 601C366.7 601 333.3 601 300 601C266.7 601 233.3 601 200 601C166.7 601 133.3 601 100 601C66.7 601 33.3 601 16.7 601L0 601Z" fill="#5e6572"></path><path d="M0 485L16.7 480.5C33.3 476 66.7 467 100 464.2C133.3 461.3 166.7 464.7 200 470C233.3 475.3 266.7 482.7 300 481.8C333.3 481 366.7 472 400 468C433.3 464 466.7 465 500 476.3C533.3 487.7 566.7 509.3 600 516.8C633.3 524.3 666.7 517.7 700 511.2C733.3 504.7 766.7 498.3 800 496.2C833.3 494 866.7 496 883.3 497L900 498L900 601L883.3 601C866.7 601 833.3 601 800 601C766.7 601 733.3 601 700 601C666.7 601 633.3 601 600 601C566.7 601 533.3 601 500 601C466.7 601 433.3 601 400 601C366.7 601 333.3 601 300 601C266.7 601 233.3 601 200 601C166.7 601 133.3 601 100 601C66.7 601 33.3 601 16.7 601L0 601Z" fill="#2f3948"></path><path d="M0 548L16.7 544.2C33.3 540.3 66.7 532.7 100 526.7C133.3 520.7 166.7 516.3 200 517.5C233.3 518.7 266.7 525.3 300 533.7C333.3 542 366.7 552 400 552.8C433.3 553.7 466.7 545.3 500 537.8C533.3 530.3 566.7 523.7 600 525.8C633.3 528 666.7 539 700 545.3C733.3 551.7 766.7 553.3 800 552.5C833.3 551.7 866.7 548.3 883.3 546.7L900 545L900 601L883.3 601C866.7 601 833.3 601 800 601C766.7 601 733.3 601 700 601C666.7 601 633.3 601 600 601C566.7 601 533.3 601 500 601C466.7 601 433.3 601 400 601C366.7 601 333.3 601 300 601C266.7 601 233.3 601 200 601C166.7 601 133.3 601 100 601C66.7 601 33.3 601 16.7 601L0 601Z" fill="#001122"></path></svg>