<svg id="visual" viewBox="0 0 900 600" width="900" height="600" xmlns="http://www.w3.org/2000/svg" xmlns:xlink="http://www.w3.org/1999/xlink" version="1.1"><path d="M0 205L82 127L164 145L245 79L327 157L409 127L491 247L573 181L655 169L736 223L818 85L900 169L900 0L818 0L736 0L655 0L573 0L491 0L409 0L327 0L245 0L164 0L82 0L0 0Z" fill="#7b817f"></path><path d="M0 313L82 331L164 265L245 265L327 343L409 283L491 385L573 379L655 283L736 313L818 277L900 289L900 167L818 83L736 221L655 167L573 179L491 245L409 125L327 155L245 77L164 143L82 125L0 203Z" fill="#606665"></path><path d="M0 397L82 409L164 295L245 337L327 379L409 331L491 415L573 409L655 355L736 373L818 343L900 319L900 287L818 275L736 311L655 281L573 377L491 383L409 281L327 341L245 263L164 263L82 329L0 311Z" fill="#474c4b"></path><path d="M0 445L82 487L164 403L245 433L327 439L409 397L491 469L573 487L655 415L736 451L818 379L900 403L900 317L818 341L736 371L655 353L573 407L491 413L409 329L327 377L245 335L164 293L82 407L0 395Z" fill="#2f3433"></path><path d="M0 553L82 529L164 523L245 523L327 541L409 523L491 559L573 535L655 547L736 511L818 517L900 505L900 401L818 377L736 449L655 413L573 485L491 467L409 395L327 437L245 431L164 401L82 485L0 443Z" fill="#191e1d"></path><path d="M0 601L82 601L164 601L245 601L327 601L409 601L491 601L573 601L655 601L736 601L818 601L900 601L900 503L818 515L736 509L655 545L573 533L491 557L409 521L327 539L245 521L164 521L82 527L0 551Z" fill="#000000"></path></svg>