<svg id="visual" viewBox="0 0 900 600" width="900" height="600" xmlns="http://www.w3.org/2000/svg" xmlns:xlink="http://www.w3.org/1999/xlink" version="1.1"><path d="M0 97L13.7 111C27.3 125 54.7 153 82 165C109.3 177 136.7 173 163.8 186C191 199 218 229 245.2 242C272.3 255 299.7 251 327 233C354.3 215 381.7 183 409 175C436.3 167 463.7 183 491 189C518.3 195 545.7 191 573 192C600.3 193 627.7 199 654.8 212C682 225 709 245 736.2 227C763.3 209 790.7 153 818 135C845.3 117 872.7 137 886.3 147L900 157L900 0L886.3 0C872.7 0 845.3 0 818 0C790.7 0 763.3 0 736.2 0C709 0 682 0 654.8 0C627.7 0 600.3 0 573 0C545.7 0 518.3 0 491 0C463.7 0 436.3 0 409 0C381.7 0 354.3 0 327 0C299.7 0 272.3 0 245.2 0C218 0 191 0 163.8 0C136.7 0 109.3 0 82 0C54.7 0 27.3 0 13.7 0L0 0Z" fill="#94979a"></path><path d="M0 133L13.7 150C27.3 167 54.7 201 82 216C109.3 231 136.7 227 163.8 247C191 267 218 311 245.2 322C272.3 333 299.7 311 327 287C354.3 263 381.7 237 409 235C436.3 233 463.7 255 491 262C518.3 269 545.7 261 573 257C600.3 253 627.7 253 654.8 266C682 279 709 305 736.2 285C763.3 265 790.7 199 818 187C845.3 175 872.7 217 886.3 238L900 259L900 155L886.3 145C872.7 135 845.3 115 818 133C790.7 151 763.3 207 736.2 225C709 243 682 223 654.8 210C627.7 197 600.3 191 573 190C545.7 189 518.3 193 491 187C463.7 181 436.3 165 409 173C381.7 181 354.3 213 327 231C299.7 249 272.3 253 245.2 240C218 227 191 197 163.8 184C136.7 171 109.3 175 82 163C54.7 151 27.3 123 13.7 109L0 95Z" fill="#818488"></path><path d="M0 397L13.7 403C27.3 409 54.7 421 82 427C109.3 433 136.7 433 163.8 436C191 439 218 445 245.2 437C272.3 429 299.7 407 327 397C354.3 387 381.7 389 409 400C436.3 411 463.7 431 491 437C518.3 443 545.7 435 573 419C600.3 403 627.7 379 654.8 389C682 399 709 443 736.2 454C763.3 465 790.7 443 818 433C845.3 423 872.7 425 886.3 426L900 427L900 257L886.3 236C872.7 215 845.3 173 818 185C790.7 197 763.3 263 736.2 283C709 303 682 277 654.8 264C627.7 251 600.3 251 573 255C545.7 259 518.3 267 491 260C463.7 253 436.3 231 409 233C381.7 235 354.3 261 327 285C299.7 309 272.3 331 245.2 320C218 309 191 265 163.8 245C136.7 225 109.3 229 82 214C54.7 199 27.3 165 13.7 148L0 131Z" fill="#6f7276"></path><path d="M0 493L13.7 503C27.3 513 54.7 533 82 537C109.3 541 136.7 529 163.8 522C191 515 218 513 245.2 514C272.3 515 299.7 519 327 525C354.3 531 381.7 539 409 536C436.3 533 463.7 519 491 518C518.3 517 545.7 529 573 526C600.3 523 627.7 505 654.8 507C682 509 709 531 736.2 537C763.3 543 790.7 533 818 532C845.3 531 872.7 539 886.3 543L900 547L900 425L886.3 424C872.7 423 845.3 421 818 431C790.7 441 763.3 463 736.2 452C709 441 682 397 654.8 387C627.7 377 600.3 401 573 417C545.7 433 518.3 441 491 435C463.7 429 436.3 409 409 398C381.7 387 354.3 385 327 395C299.7 405 272.3 427 245.2 435C218 443 191 437 163.8 434C136.7 431 109.3 431 82 425C54.7 419 27.3 407 13.7 401L0 395Z" fill="#606366"></path><path d="M0 601L13.7 601C27.3 601 54.7 601 82 601C109.3 601 136.7 601 163.8 601C191 601 218 601 245.2 601C272.3 601 299.7 601 327 601C354.3 601 381.7 601 409 601C436.3 601 463.7 601 491 601C518.3 601 545.7 601 573 601C600.3 601 627.7 601 654.8 601C682 601 709 601 736.2 601C763.3 601 790.7 601 818 601C845.3 601 872.7 601 886.3 601L900 601L900 545L886.3 541C872.7 537 845.3 529 818 530C790.7 531 763.3 541 736.2 535C709 529 682 507 654.8 505C627.7 503 600.3 521 573 524C545.7 527 518.3 515 491 516C463.7 517 436.3 531 409 534C381.7 537 354.3 529 327 523C299.7 517 272.3 513 245.2 512C218 511 191 513 163.8 520C136.7 527 109.3 539 82 535C54.7 531 27.3 511 13.7 501L0 491Z" fill="#515457"></path></svg>